<svg width="40" height="40" viewBox="0 0 40 40" fill="none" xmlns="http://www.w3.org/2000/svg">
<g clip-path="url(#clip0_1483_171533)">
<path d="M29.095 5L35 5.005L35.0034 10.8767L25.8917 19.9867L30.605 24.7017L32.9634 22.345L35.32 24.7017L31.1967 28.8267L35.91 33.5417L33.5534 35.8983L28.8384 31.1833L24.7134 35.3083L22.3567 32.9517L24.7134 30.5933L19.9984 25.88L15.285 30.5933L17.6434 32.9517L15.2867 35.3083L11.1617 31.1833L6.44669 35.8983L4.09003 33.5417L8.80503 28.825L4.68003 24.7017L7.03669 22.345L9.39336 24.7L14.105 19.9867L5.00503 10.8867L5.00003 5L10.91 5.005L19.9984 14.095L29.095 5ZM16.4617 22.3433L11.75 27.0567L12.93 28.235L17.6417 23.5217L16.4634 22.3433H16.4617ZM31.6684 8.335H30.4734L22.3567 16.45L23.5334 17.6283L31.6684 9.49667V8.335ZM8.33503 8.335V9.50167L27.07 28.2367L28.2484 27.0583L9.52669 8.33667L8.33503 8.335Z" fill="#141F27"/>
</g>
<defs>
<clipPath id="clip0_1483_171533">
<rect width="40" height="40" fill="white"/>
</clipPath>
</defs>
</svg>
