<svg width="40" height="40" viewBox="0 0 40 40" fill="none" xmlns="http://www.w3.org/2000/svg">
<g clip-path="url(#clip0_1483_171610)">
<path d="M9.16667 35.0013C8.18175 35.0013 7.20648 34.8073 6.29654 34.4304C5.3866 34.0535 4.5598 33.501 3.86336 32.8046C3.16693 32.1082 2.61448 31.2814 2.23757 30.3714C1.86066 29.4615 1.66667 28.4862 1.66667 27.5013C1.66667 26.5164 1.86066 25.5411 2.23757 24.6312C2.61448 23.7212 3.16693 22.8944 3.86336 22.198C4.5598 21.5016 5.3866 20.9491 6.29654 20.5722C7.20648 20.1953 8.18175 20.0013 9.16667 20.0013C11.1558 20.0013 13.0634 20.7915 14.47 22.198C15.8765 23.6045 16.6667 25.5122 16.6667 27.5013C16.6667 29.4904 15.8765 31.3981 14.47 32.8046C13.0634 34.2111 11.1558 35.0013 9.16667 35.0013ZM9.16667 31.668C10.2717 31.668 11.3315 31.229 12.1129 30.4476C12.8943 29.6662 13.3333 28.6064 13.3333 27.5013C13.3333 26.3962 12.8943 25.3364 12.1129 24.555C11.3315 23.7736 10.2717 23.3346 9.16667 23.3346C8.0616 23.3346 7.00179 23.7736 6.22039 24.555C5.43899 25.3364 5 26.3962 5 27.5013C5 28.6064 5.43899 29.6662 6.22039 30.4476C7.00179 31.229 8.0616 31.668 9.16667 31.668ZM30.8333 35.0013C29.8484 35.0013 28.8731 34.8073 27.9632 34.4304C27.0533 34.0535 26.2265 33.501 25.53 32.8046C24.8336 32.1082 24.2811 31.2814 23.9042 30.3714C23.5273 29.4615 23.3333 28.4862 23.3333 27.5013C23.3333 26.5164 23.5273 25.5411 23.9042 24.6312C24.2811 23.7212 24.8336 22.8944 25.53 22.198C26.2265 21.5016 27.0533 20.9491 27.9632 20.5722C28.8731 20.1953 29.8484 20.0013 30.8333 20.0013C32.8225 20.0013 34.7301 20.7915 36.1366 22.198C37.5432 23.6045 38.3333 25.5122 38.3333 27.5013C38.3333 29.4904 37.5432 31.3981 36.1366 32.8046C34.7301 34.2111 32.8225 35.0013 30.8333 35.0013ZM30.8333 31.668C31.9384 31.668 32.9982 31.229 33.7796 30.4476C34.561 29.6662 35 28.6064 35 27.5013C35 26.3962 34.561 25.3364 33.7796 24.555C32.9982 23.7736 31.9384 23.3346 30.8333 23.3346C29.7283 23.3346 28.6685 23.7736 27.8871 24.555C27.1056 25.3364 26.6667 26.3962 26.6667 27.5013C26.6667 28.6064 27.1056 29.6662 27.8871 30.4476C28.6685 31.229 29.7283 31.668 30.8333 31.668ZM18.3717 17.1763L21.6667 20.0013V30.0013H18.3333V21.668L13.8017 17.8913C13.3984 17.6142 13.0611 17.2517 12.8137 16.8295C12.5663 16.4074 12.4149 15.9359 12.3702 15.4486C12.3255 14.9614 12.3886 14.4703 12.555 14.0101C12.7215 13.55 12.9872 13.1322 13.3333 12.7863L18.0467 8.07297C18.3562 7.7633 18.7237 7.51764 19.1282 7.35004C19.5327 7.18244 19.9663 7.09618 20.4042 7.09618C20.842 7.09618 21.2756 7.18244 21.6801 7.35004C22.0846 7.51764 22.4521 7.7633 22.7617 8.07297L25.1183 10.4296C26.8834 12.201 29.173 13.3554 31.6467 13.7213L31.63 17.0796C28.2736 16.6932 25.1473 15.1803 22.7617 12.788L18.3717 17.1763ZM26.6667 8.33464C25.7826 8.33464 24.9348 7.98345 24.3096 7.35832C23.6845 6.7332 23.3333 5.88536 23.3333 5.0013C23.3333 4.11725 23.6845 3.2694 24.3096 2.64428C24.9348 2.01916 25.7826 1.66797 26.6667 1.66797C27.5507 1.66797 28.3986 2.01916 29.0237 2.64428C29.6488 3.2694 30 4.11725 30 5.0013C30 5.88536 29.6488 6.7332 29.0237 7.35832C28.3986 7.98345 27.5507 8.33464 26.6667 8.33464Z" fill="#141F27"/>
</g>
<defs>
<clipPath id="clip0_1483_171610">
<rect width="40" height="40" fill="white"/>
</clipPath>
</defs>
</svg>
