<svg width="40" height="40" viewBox="0 0 40 40" fill="none" xmlns="http://www.w3.org/2000/svg">
<g clip-path="url(#clip0_1483_170903)">
<path d="M10.5717 24.3693L5.85832 29.0843L11.75 34.9759L34.1417 12.5843L28.25 6.69261L24.7133 10.2276L27.0717 12.5843L24.7133 14.9409L22.3567 12.5843L18.8217 16.1209L22.3567 19.6543L20 22.0143L16.465 18.4793L12.9283 22.0143L15.2867 24.3709L12.9283 26.7293L10.5717 24.3709V24.3693ZM29.4283 3.15595L37.6783 11.4059C37.9908 11.7185 38.1663 12.1423 38.1663 12.5843C38.1663 13.0262 37.9908 13.4501 37.6783 13.7626L12.9283 38.5126C12.6158 38.8251 12.1919 39.0006 11.75 39.0006C11.3081 39.0006 10.8842 38.8251 10.5717 38.5126L2.32166 30.2626C2.0092 29.9501 1.83368 29.5262 1.83368 29.0843C1.83368 28.6423 2.0092 28.2185 2.32166 27.9059L27.0717 3.15595C27.3842 2.84349 27.8081 2.66797 28.25 2.66797C28.6919 2.66797 29.1158 2.84349 29.4283 3.15595Z" fill="#141F27"/>
</g>
<defs>
<clipPath id="clip0_1483_170903">
<rect width="40" height="40" fill="white"/>
</clipPath>
</defs>
</svg>
