<svg width="40" height="40" viewBox="0 0 40 40" fill="none" xmlns="http://www.w3.org/2000/svg">
<g clip-path="url(#clip0_1483_170891)">
<path d="M28.3333 5.0013H35C35.442 5.0013 35.866 5.1769 36.1785 5.48946C36.4911 5.80202 36.6667 6.22594 36.6667 6.66797V33.3346C36.6667 33.7767 36.4911 34.2006 36.1785 34.5131C35.866 34.8257 35.442 35.0013 35 35.0013H5C4.55797 35.0013 4.13405 34.8257 3.82149 34.5131C3.50893 34.2006 3.33333 33.7767 3.33333 33.3346V6.66797C3.33333 6.22594 3.50893 5.80202 3.82149 5.48946C4.13405 5.1769 4.55797 5.0013 5 5.0013H11.6667V1.66797H15V5.0013H25V1.66797H28.3333V5.0013ZM33.3333 18.3346H6.66667V31.668H33.3333V18.3346ZM25 8.33464H15V11.668H11.6667V8.33464H6.66667V15.0013H33.3333V8.33464H28.3333V11.668H25V8.33464ZM10 21.668H13.3333V25.0013H10V21.668ZM18.3333 21.668H21.6667V25.0013H18.3333V21.668ZM26.6667 21.668H30V25.0013H26.6667V21.668Z" fill="#141F27"/>
</g>
<defs>
<clipPath id="clip0_1483_170891">
<rect width="40" height="40" fill="white"/>
</clipPath>
</defs>
</svg>
