<svg width="40" height="40" viewBox="0 0 40 40" fill="none" xmlns="http://www.w3.org/2000/svg">
<g clip-path="url(#clip0_1483_170966)">
<path d="M11.75 23.5361L8.21666 27.0727L12.93 31.7861L31.785 12.9294L27.0717 8.21772L23.5333 11.7511L25.8917 14.1077L23.5333 16.4677L21.1767 14.1094L18.82 16.4677L21.1767 18.8244L18.82 21.1811L16.4633 18.8244L14.105 21.1811L16.4633 23.5377L14.105 25.8961L11.75 23.5344V23.5361ZM28.25 4.68105L35.32 11.7511C35.6324 12.0636 35.808 12.4874 35.808 12.9294C35.808 13.3713 35.6324 13.7952 35.32 14.1077L14.1067 35.3211C13.7941 35.6335 13.3703 35.809 12.9283 35.809C12.4864 35.809 12.0625 35.6335 11.75 35.3211L4.67999 28.2511C4.36754 27.9385 4.19201 27.5147 4.19201 27.0727C4.19201 26.6308 4.36754 26.2069 4.67999 25.8944L25.8933 4.68105C26.2059 4.3686 26.6297 4.19307 27.0717 4.19307C27.5136 4.19307 27.9374 4.3686 28.25 4.68105ZM23.5333 30.6061L25.8917 28.2494L29.6283 31.9877H31.985V29.6311L28.2483 25.8927L30.605 23.5361L35 27.9294V35.0011H27.93L23.535 30.6061H23.5333ZM9.39333 16.4644L4.67833 11.7511C4.52336 11.5963 4.40043 11.4124 4.31656 11.2101C4.23269 11.0078 4.18951 10.7909 4.18951 10.5719C4.18951 10.3529 4.23269 10.136 4.31656 9.93365C4.40043 9.73132 4.52336 9.54751 4.67833 9.39272L9.39333 4.67938C9.70587 4.36693 10.1297 4.19141 10.5717 4.19141C11.0136 4.19141 11.4374 4.36693 11.75 4.67938L16.4667 9.39272L14.1067 11.7511L10.5717 8.21438L8.21499 10.5727L11.75 14.1061L9.39333 16.4644Z" fill="#141F27"/>
</g>
<defs>
<clipPath id="clip0_1483_170966">
<rect width="40" height="40" fill="white"/>
</clipPath>
</defs>
</svg>
