<svg width="40" height="40" viewBox="0 0 40 40" fill="none" xmlns="http://www.w3.org/2000/svg">
<g clip-path="url(#clip0_1483_171578)">
<path d="M17.93 19.7145L31.0117 6.63281L33.3683 8.98948L31.0117 11.3478L35.135 15.4711L32.7783 17.8295L28.6533 13.7045L26.2967 16.0611L29.8317 19.5961L27.475 21.9545L23.94 18.4178L20.2867 22.0711C21.4207 23.7945 21.8756 25.8771 21.5632 27.9163C21.2508 29.9556 20.1934 31.8065 18.5954 33.1114C16.9975 34.4162 14.9725 35.0822 12.912 34.9805C10.8514 34.8789 8.9018 34.0169 7.43999 32.5611C5.97504 31.1017 5.10504 29.1497 4.99908 27.0845C4.89313 25.0194 5.55878 22.9886 6.86668 21.3868C8.17458 19.7851 10.0313 18.7269 12.0759 18.4178C14.1206 18.1087 16.2071 18.5709 17.93 19.7145ZM16.8683 30.2028C17.3539 29.7436 17.7424 29.1916 18.011 28.5797C18.2795 27.9677 18.4227 27.3081 18.432 26.6399C18.4413 25.9716 18.3165 25.3083 18.0651 24.6891C17.8136 24.0699 17.4406 23.5074 16.968 23.0348C16.4954 22.5622 15.9329 22.1892 15.3137 21.9377C14.6945 21.6863 14.0312 21.5615 13.3629 21.5708C12.6947 21.5801 12.0351 21.7233 11.4231 21.9918C10.8112 22.2604 10.2592 22.649 9.79999 23.1345C8.8892 24.0775 8.38523 25.3405 8.39662 26.6515C8.40802 27.9625 8.93386 29.2165 9.8609 30.1436C10.7879 31.0706 12.042 31.5965 13.353 31.6078C14.664 31.6192 15.927 31.1153 16.87 30.2045L16.8683 30.2028Z" fill="#141F27"/>
</g>
<defs>
<clipPath id="clip0_1483_171578">
<rect width="40" height="40" fill="white"/>
</clipPath>
</defs>
</svg>
