<svg width="40" height="40" viewBox="0 0 40 40" fill="none" xmlns="http://www.w3.org/2000/svg">
<path d="M8.33333 7.67463V22.983C8.33335 24.0804 8.60429 25.1609 9.1221 26.1284C9.63991 27.096 10.3886 27.9208 11.3017 28.5296L20 34.3296L28.6983 28.5296C29.6112 27.921 30.3597 27.0965 30.8775 26.1292C31.3953 25.1619 31.6664 24.0818 31.6667 22.9846V7.67463L20 5.08464L8.33333 7.67463ZM6.305 4.7113L20 1.66797L33.695 4.7113C34.0651 4.79357 34.3961 4.99958 34.6333 5.29531C34.8706 5.59104 34.9999 5.95883 35 6.33797V22.983C34.9999 24.6292 34.5933 26.2499 33.8165 27.7013C33.0396 29.1527 31.9164 30.3899 30.5467 31.303L20 38.3346L9.45333 31.303C8.08379 30.39 6.96077 29.1531 6.18391 27.7021C5.40706 26.251 5.00039 24.6306 5 22.9846V6.33797C5.00007 5.95883 5.1294 5.59104 5.36665 5.29531C5.6039 4.99958 5.93489 4.79357 6.305 4.7113V4.7113ZM20 22.5013L15.1017 25.0763L16.0367 19.623L12.075 15.7596L17.5517 14.963L20 10.0013L22.45 14.963L27.925 15.7596L23.9633 19.623L24.8967 25.0763L20 22.5013Z" fill="#141F27"/>
</svg>
