<svg width="40" height="40" viewBox="0 0 40 40" fill="none" xmlns="http://www.w3.org/2000/svg">
<path d="M33.3333 18.3333H31.6666V11.6667H33.3333V6.66667H36.6666V11.6667H38.3333V18.3333H36.6666V30C36.6666 31.3261 36.1399 32.5979 35.2022 33.5355C34.2645 34.4732 32.9927 35 31.6666 35C30.3406 35 29.0688 34.4732 28.1311 33.5355C27.1934 32.5979 26.6666 31.3261 26.6666 30V23.3333H23.3333V31.6667H25V35H3.33331V31.6667H4.99998V6.66667C4.99998 6.22464 5.17557 5.80072 5.48813 5.48816C5.8007 5.17559 6.22462 5 6.66665 5H21.6666C22.1087 5 22.5326 5.17559 22.8452 5.48816C23.1577 5.80072 23.3333 6.22464 23.3333 6.66667V20H26.6666C27.5507 20 28.3985 20.3512 29.0237 20.9763C29.6488 21.6014 30 22.4493 30 23.3333V30C30 30.442 30.1756 30.866 30.4881 31.1785C30.8007 31.4911 31.2246 31.6667 31.6666 31.6667C32.1087 31.6667 32.5326 31.4911 32.8452 31.1785C33.1577 30.866 33.3333 30.442 33.3333 30V18.3333ZM20 31.6667V8.33333H8.33331V31.6667H20ZM15 18.3333H20L13.3333 28.3333V21.6667H8.33331L15 11.6667V18.3333Z" fill="#141F27"/>
</svg>
