<svg width="40" height="40" viewBox="0 0 40 40" fill="none" xmlns="http://www.w3.org/2000/svg">
<g clip-path="url(#clip0_1483_170823)">
<path d="M8.33333 8.33333V13.3333H31.6667V8.33333H8.33333ZM6.66667 5H33.3333C33.7754 5 34.1993 5.17559 34.5118 5.48816C34.8244 5.80072 35 6.22464 35 6.66667V15C35 15.442 34.8244 15.866 34.5118 16.1785C34.1993 16.4911 33.7754 16.6667 33.3333 16.6667H6.66667C6.22464 16.6667 5.80072 16.4911 5.48816 16.1785C5.17559 15.866 5 15.442 5 15V6.66667C5 6.22464 5.17559 5.80072 5.48816 5.48816C5.80072 5.17559 6.22464 5 6.66667 5ZM10 20H20C20.442 20 20.866 20.1756 21.1785 20.4882C21.4911 20.8007 21.6667 21.2246 21.6667 21.6667V26.6667H23.3333V36.6667H16.6667V26.6667H18.3333V23.3333H8.33333C7.89131 23.3333 7.46738 23.1577 7.15482 22.8452C6.84226 22.5326 6.66667 22.1087 6.66667 21.6667V18.3333H10V20ZM29.5533 22.8867L32.5 19.94L35.4467 22.8867C36.0293 23.4694 36.426 24.2119 36.5867 25.0201C36.7474 25.8283 36.6648 26.666 36.3494 27.4273C36.034 28.1886 35.4999 28.8393 34.8148 29.2971C34.1296 29.7549 33.324 29.9992 32.5 29.9992C31.676 29.9992 30.8704 29.7549 30.1852 29.2971C29.5001 28.8393 28.966 28.1886 28.6506 27.4273C28.3352 26.666 28.2526 25.8283 28.4133 25.0201C28.574 24.2119 28.9707 23.4694 29.5533 22.8867Z" fill="#141F27"/>
</g>
<defs>
<clipPath id="clip0_1483_170823">
<rect width="40" height="40" fill="white"/>
</clipPath>
</defs>
</svg>
