<svg width="40" height="40" viewBox="0 0 40 40" fill="none" xmlns="http://www.w3.org/2000/svg">
<path d="M21.6667 29.9987V33.332H31.6667V36.6654H21.6667C20.7826 36.6654 19.9348 36.3142 19.3096 35.6891C18.6845 35.0639 18.3333 34.2161 18.3333 33.332V29.9987H13.3333C11.5652 29.9987 9.86952 29.2963 8.61928 28.0461C7.36904 26.7958 6.66666 25.1001 6.66666 23.332V11.6654C6.66666 11.2233 6.84225 10.7994 7.15481 10.4869C7.46737 10.1743 7.8913 9.9987 8.33332 9.9987H13.3333V3.33203H16.6667V9.9987H23.3333V3.33203H26.6667V9.9987H31.6667C32.1087 9.9987 32.5326 10.1743 32.8452 10.4869C33.1577 10.7994 33.3333 11.2233 33.3333 11.6654V23.332C33.3333 25.1001 32.6309 26.7958 31.3807 28.0461C30.1305 29.2963 28.4348 29.9987 26.6667 29.9987H21.6667ZM13.3333 26.6654H26.6667C27.5507 26.6654 28.3986 26.3142 29.0237 25.6891C29.6488 25.0639 30 24.2161 30 23.332V18.332H9.99999V23.332C9.99999 24.2161 10.3512 25.0639 10.9763 25.6891C11.6014 26.3142 12.4493 26.6654 13.3333 26.6654ZM30 13.332H9.99999V14.9987H30V13.332ZM20 24.1654C19.558 24.1654 19.134 23.9898 18.8215 23.6772C18.5089 23.3646 18.3333 22.9407 18.3333 22.4987C18.3333 22.0567 18.5089 21.6327 18.8215 21.3202C19.134 21.0076 19.558 20.832 20 20.832C20.442 20.832 20.8659 21.0076 21.1785 21.3202C21.4911 21.6327 21.6667 22.0567 21.6667 22.4987C21.6667 22.9407 21.4911 23.3646 21.1785 23.6772C20.8659 23.9898 20.442 24.1654 20 24.1654Z" fill="#141F27"/>
</svg>
