<svg width="40" height="40" viewBox="0 0 40 40" fill="none" xmlns="http://www.w3.org/2000/svg">
<g clip-path="url(#clip0_1483_170994)">
<path d="M6.66667 24.9987H10V33.332H30V6.66536H10V14.9987H6.66667V4.9987C6.66667 4.55667 6.84226 4.13275 7.15482 3.82019C7.46738 3.50763 7.89131 3.33203 8.33333 3.33203H31.6667C32.1087 3.33203 32.5326 3.50763 32.8452 3.82019C33.1577 4.13275 33.3333 4.55667 33.3333 4.9987V34.9987C33.3333 35.4407 33.1577 35.8647 32.8452 36.1772C32.5326 36.4898 32.1087 36.6654 31.6667 36.6654H8.33333C7.89131 36.6654 7.46738 36.4898 7.15482 36.1772C6.84226 35.8647 6.66667 35.4407 6.66667 34.9987V24.9987ZM16.6667 18.332V13.332L25 19.9987L16.6667 26.6654V21.6654H3.33333V18.332H16.6667Z" fill="#141F27"/>
</g>
<defs>
<clipPath id="clip0_1483_170994">
<rect width="40" height="40" fill="white"/>
</clipPath>
</defs>
</svg>
