<svg width="40" height="40" viewBox="0 0 40 40" fill="none" xmlns="http://www.w3.org/2000/svg">
<path d="M17.5 28.3323H6.66665V24.999H17.5C18.5646 24.9994 19.6087 25.2911 20.5194 25.8425C21.43 26.3939 22.1724 27.184 22.6661 28.1272C23.1598 29.0704 23.3859 30.1307 23.3201 31.1932C23.2542 32.2558 22.8988 33.28 22.2924 34.155C21.686 35.03 20.8517 35.7224 19.88 36.1571C18.9082 36.5918 17.836 36.7524 16.7795 36.6212C15.723 36.4901 14.7226 36.0724 13.8865 35.4134C13.0505 34.7543 12.4108 33.879 12.0366 32.8823L15.1583 31.7107C15.3186 32.1378 15.5927 32.513 15.951 32.7955C16.3093 33.078 16.7381 33.257 17.1908 33.3133C17.6436 33.3695 18.1031 33.3007 18.5196 33.1145C18.9361 32.9282 19.2937 32.6315 19.5536 32.2565C19.8135 31.8815 19.9659 31.4426 19.9941 30.9872C20.0224 30.5318 19.9255 30.0774 19.714 29.6731C19.5024 29.2689 19.1843 28.9302 18.794 28.6939C18.4037 28.4576 17.9562 28.3325 17.5 28.3323ZM8.33331 18.3323H30.8333C31.8979 18.3327 32.9421 18.6244 33.8527 19.1758C34.7634 19.7272 35.5057 20.5173 35.9994 21.4605C36.4931 22.4037 36.7193 23.464 36.6534 24.5266C36.5875 25.5891 36.2321 26.6134 35.6257 27.4884C35.0194 28.3634 34.1851 29.0557 33.2133 29.4905C32.2415 29.9252 31.1693 30.0857 30.1128 29.9546C29.0564 29.8235 28.0559 29.4058 27.2199 28.7467C26.3838 28.0876 25.7441 27.2123 25.37 26.2157L28.4916 25.044C28.6519 25.4712 28.9261 25.8463 29.2844 26.1288C29.6426 26.4113 30.0714 26.5904 30.5242 26.6466C30.9769 26.7028 31.4365 26.6341 31.853 26.4478C32.2695 26.2615 32.627 25.9648 32.887 25.5898C33.1469 25.2149 33.2992 24.7759 33.3275 24.3205C33.3557 23.8651 33.2588 23.4107 33.0473 23.0065C32.8357 22.6022 32.5176 22.2636 32.1273 22.0272C31.7371 21.7909 31.2896 21.6658 30.8333 21.6657H8.33331C7.00723 21.6657 5.73546 21.1389 4.79778 20.2012C3.8601 19.2635 3.33331 17.9917 3.33331 16.6657C3.33331 15.3396 3.8601 14.0678 4.79778 13.1301C5.73546 12.1924 7.00723 11.6657 8.33331 11.6657H22.5C22.9562 11.6655 23.4037 11.5404 23.794 11.3041C24.1843 11.0677 24.5024 10.7291 24.714 10.3248C24.9255 9.92059 25.0224 9.46616 24.9941 9.01078C24.9659 8.55541 24.8135 8.11645 24.5536 7.74147C24.2937 7.36649 23.9361 7.06978 23.5196 6.88351C23.1031 6.69723 22.6436 6.62848 22.1908 6.68471C21.7381 6.74094 21.3093 6.92 20.951 7.2025C20.5927 7.485 20.3186 7.86015 20.1583 8.28732L17.0366 7.11732C17.5174 5.83866 18.4316 4.76922 19.6199 4.09534C20.8082 3.42145 22.1952 3.18584 23.5394 3.42957C24.8835 3.67329 26.0995 4.38089 26.9756 5.42908C27.8516 6.47727 28.3321 7.79959 28.3333 9.16565C28.3333 10.7127 27.7187 12.1965 26.6248 13.2904C25.5308 14.3844 24.0471 14.999 22.5 14.999H8.33331C7.89129 14.999 7.46736 15.1746 7.1548 15.4871C6.84224 15.7997 6.66665 16.2236 6.66665 16.6657C6.66665 17.1077 6.84224 17.5316 7.1548 17.8442C7.46736 18.1567 7.89129 18.3323 8.33331 18.3323Z" fill="#141F27"/>
</svg>
