<svg width="40" height="40" viewBox="0 0 40 40" fill="none" xmlns="http://www.w3.org/2000/svg">
<g clip-path="url(#clip0_1483_170927)">
<path d="M3.33334 33.332H36.6667V36.6654H3.33334V33.332ZM6.66668 19.9987H10V31.6654H6.66668V19.9987ZM15 19.9987H18.3333V31.6654H15V19.9987ZM21.6667 19.9987H25V31.6654H21.6667V19.9987ZM30 19.9987H33.3333V31.6654H30V19.9987ZM3.33334 11.6654L20 3.33203L36.6667 11.6654V18.332H3.33334V11.6654ZM6.66668 13.7254V14.9987H33.3333V13.7254L20 7.0587L6.66668 13.7254ZM20 13.332C19.558 13.332 19.1341 13.1564 18.8215 12.8439C18.5089 12.5313 18.3333 12.1074 18.3333 11.6654C18.3333 11.2233 18.5089 10.7994 18.8215 10.4869C19.1341 10.1743 19.558 9.9987 20 9.9987C20.442 9.9987 20.866 10.1743 21.1785 10.4869C21.4911 10.7994 21.6667 11.2233 21.6667 11.6654C21.6667 12.1074 21.4911 12.5313 21.1785 12.8439C20.866 13.1564 20.442 13.332 20 13.332Z" fill="#141F27"/>
</g>
<defs>
<clipPath id="clip0_1483_170927">
<rect width="40" height="40" fill="white"/>
</clipPath>
</defs>
</svg>
