<svg width="40" height="40" viewBox="0 0 40 40" fill="none" xmlns="http://www.w3.org/2000/svg">
<g clip-path="url(#clip0_1483_171525)">
<path d="M20 1.66797L33.695 4.7113C34.0651 4.79358 34.3961 4.99958 34.6334 5.29531C34.8706 5.59104 34.9999 5.95883 35 6.33797V22.983C34.9999 24.6292 34.5933 26.2499 33.8165 27.7013C33.0396 29.1527 31.9164 30.3899 30.5467 31.303L20 38.3346L9.45333 31.303C8.08379 30.39 6.96077 29.1531 6.18391 27.7021C5.40706 26.251 5.00039 24.6306 5 22.9846V6.33797C5.00007 5.95883 5.1294 5.59104 5.36665 5.29531C5.6039 4.99958 5.93489 4.79358 6.305 4.7113L20 1.66797ZM20 5.08297L8.33333 7.67463V22.983C8.33335 24.0804 8.60429 25.1609 9.1221 26.1284C9.63991 27.096 10.3886 27.9208 11.3017 28.5296L20 34.3296L28.6983 28.5296C29.6112 27.921 30.3597 27.0965 30.8775 26.1292C31.3953 25.1619 31.6664 24.0818 31.6667 22.9846V7.67463L20 5.08464V5.08297ZM20 11.668C20.7339 11.6676 21.4474 11.9095 22.0298 12.3561C22.6122 12.8026 23.0309 13.4289 23.2211 14.1378C23.4112 14.8466 23.3621 15.5984 23.0813 16.2764C22.8006 16.9545 22.3039 17.521 21.6683 17.888L21.6667 25.0013H18.3333V17.888C17.6979 17.5211 17.2013 16.9547 16.9205 16.2768C16.6397 15.5989 16.5905 14.8473 16.7804 14.1386C16.9703 13.4298 17.3888 12.8035 17.9709 12.3568C18.553 11.9101 19.2662 11.668 20 11.668Z" fill="#141F27"/>
</g>
<defs>
<clipPath id="clip0_1483_171525">
<rect width="40" height="40" fill="white"/>
</clipPath>
</defs>
</svg>
