<svg width="40" height="40" viewBox="0 0 40 40" fill="none" xmlns="http://www.w3.org/2000/svg">
<g clip-path="url(#clip0_1483_170939)">
<path d="M18.3333 18.332V9.71203L15.2867 12.7604L12.9283 10.4037L20 3.33203L27.0717 10.4037L24.7133 12.7604L21.6667 9.71203V18.332H30.2867L27.2383 15.2854L29.595 12.927L36.6667 19.9987L29.595 27.0704L27.2383 24.712L30.2867 21.6654H21.6667V30.2854L24.7133 27.237L27.0717 29.5937L20 36.6654L12.9283 29.5937L15.2867 27.237L18.3333 30.2854V21.6654H9.71333L12.7617 24.712L10.405 27.0704L3.33333 19.9987L10.405 12.927L12.7617 15.2854L9.71333 18.332H18.3333Z" fill="#141F27"/>
</g>
<defs>
<clipPath id="clip0_1483_170939">
<rect width="40" height="40" fill="white"/>
</clipPath>
</defs>
</svg>
