<svg width="40" height="40" viewBox="0 0 40 40" fill="none" xmlns="http://www.w3.org/2000/svg">
<g clip-path="url(#clip0_1483_171529)">
<path d="M20 38.3333C23.3152 38.3333 26.4946 37.0164 28.8388 34.6722C31.183 32.328 32.5 29.1485 32.5 25.8333C32.5 24.39 32.1167 23.005 31.6667 21.7167C28.8883 24.4617 26.7783 25.8333 25.3333 25.8333C31.9917 14.1667 28.3333 9.16667 18.3333 2.5C19.1667 10.8333 13.6733 14.6233 11.4367 16.7283C9.61221 18.4445 8.3454 20.6691 7.80048 23.1139C7.25555 25.5586 7.45766 28.1107 8.38058 30.4392C9.30351 32.7677 10.9047 34.7653 12.9765 36.1728C15.0483 37.5804 17.4953 38.3331 20 38.3333V38.3333ZM21.1833 8.725C26.585 13.3083 26.6117 16.87 22.4383 24.1817C21.17 26.4033 22.775 29.1667 25.3333 29.1667C26.48 29.1667 27.64 28.8333 28.865 28.175C28.5019 29.5466 27.8253 30.8153 26.8886 31.881C25.9519 32.9467 24.7805 33.7804 23.4668 34.3164C22.1531 34.8525 20.7328 35.0763 19.3179 34.9701C17.903 34.864 16.5321 34.4309 15.313 33.7048C14.094 32.9788 13.0601 31.9797 12.2928 30.7862C11.5255 29.5926 11.0458 28.2373 10.8914 26.8268C10.7369 25.4164 10.912 23.9893 11.4029 22.658C11.8937 21.3268 12.6869 20.1276 13.72 19.155C13.93 18.9583 14.995 18.0133 15.0417 17.9717C15.7483 17.3383 16.33 16.7767 16.905 16.1617C18.955 13.965 20.4283 11.5283 21.1817 8.725H21.1833Z" fill="#141F27"/>
</g>
<defs>
<clipPath id="clip0_1483_171529">
<rect width="40" height="40" fill="white"/>
</clipPath>
</defs>
</svg>
