<svg width="40" height="40" viewBox="0 0 40 40" fill="none" xmlns="http://www.w3.org/2000/svg">
<path d="M31.6667 15.0013C32.7783 16.768 33.3333 18.9913 33.3333 21.668C33.3333 26.668 27.5 28.3346 25 36.668C23.8883 35.7096 23.3333 34.3213 23.3333 32.5013C23.3333 26.698 31.6667 23.6846 31.6667 15.0013ZM24.1667 8.33464C25.2734 10.3816 25.8466 12.6744 25.8333 15.0013C25.8333 23.3346 15.8333 25.0013 19.1667 36.668C16.3883 34.7346 15 31.9563 15 28.3346C15 22.793 24.1667 18.3346 24.1667 8.33464ZM16.6667 1.66797C17.7783 3.88964 18.3333 6.38964 18.3333 9.16797C18.3333 19.168 3.33333 21.668 13.3333 36.668C9.16667 35.8346 5.83333 31.668 5.83333 26.668C5.83333 15.8346 16.6667 14.168 16.6667 1.66797Z" fill="#141F27"/>
</svg>
