<svg width="40" height="40" viewBox="0 0 40 40" fill="none" xmlns="http://www.w3.org/2000/svg">
<g clip-path="url(#clip0_1483_170879)">
<path d="M15 1.66797V5.0013H25V1.66797H28.3333V5.0013H35C35.442 5.0013 35.866 5.1769 36.1785 5.48946C36.4911 5.80202 36.6667 6.22594 36.6667 6.66797V33.3346C36.6667 33.7767 36.4911 34.2006 36.1785 34.5131C35.866 34.8257 35.442 35.0013 35 35.0013H5.00001C4.55798 35.0013 4.13406 34.8257 3.8215 34.5131C3.50894 34.2006 3.33334 33.7767 3.33334 33.3346V6.66797C3.33334 6.22594 3.50894 5.80202 3.8215 5.48946C4.13406 5.1769 4.55798 5.0013 5.00001 5.0013H11.6667V1.66797H15ZM33.3333 16.668H6.66668V31.668H33.3333V16.668ZM25.06 18.5613L27.4167 20.918L19.1667 29.168L13.2733 23.2746L15.6333 20.918L19.1683 24.4546L25.0617 18.5613H25.06ZM11.6667 8.33464H6.66668V13.3346H33.3333V8.33464H28.3333V10.0013H25V8.33464H15V10.0013H11.6667V8.33464Z" fill="#141F27"/>
</g>
<defs>
<clipPath id="clip0_1483_170879">
<rect width="40" height="40" fill="white"/>
</clipPath>
</defs>
</svg>
