<svg width="40" height="40" viewBox="0 0 40 40" fill="none" xmlns="http://www.w3.org/2000/svg">
<g clip-path="url(#clip0_1483_170951)">
<path d="M8.33333 13.332V33.332H15V13.332H8.33333ZM5 11.6654L11.6667 3.33203L18.3333 11.6654V36.6654H5V11.6654ZM31.6667 26.6654V23.332H26.6667V19.9987H31.6667V16.6654H28.3333V13.332H31.6667V9.9987H25V33.332H31.6667V29.9987H28.3333V26.6654H31.6667ZM23.3333 6.66536H33.3333C33.7754 6.66536 34.1993 6.84096 34.5118 7.15352C34.8244 7.46608 35 7.89 35 8.33203V34.9987C35 35.4407 34.8244 35.8647 34.5118 36.1772C34.1993 36.4898 33.7754 36.6654 33.3333 36.6654H23.3333C22.8913 36.6654 22.4674 36.4898 22.1548 36.1772C21.8423 35.8647 21.6667 35.4407 21.6667 34.9987V8.33203C21.6667 7.89 21.8423 7.46608 22.1548 7.15352C22.4674 6.84096 22.8913 6.66536 23.3333 6.66536Z" fill="#141F27"/>
</g>
<defs>
<clipPath id="clip0_1483_170951">
<rect width="40" height="40" fill="white"/>
</clipPath>
</defs>
</svg>
