<svg width="40" height="40" viewBox="0 0 40 40" fill="none" xmlns="http://www.w3.org/2000/svg">
<path d="M16.6217 30.0009H23.3783C23.5983 27.9976 24.62 26.3443 26.2783 24.5393C26.4667 24.3359 27.665 23.0943 27.8067 22.9176C28.9838 21.447 29.7216 19.6738 29.9352 17.8022C30.1487 15.9307 29.8293 14.0368 29.0137 12.3388C28.1981 10.6408 26.9195 9.20774 25.3252 8.20456C23.7308 7.20139 21.8855 6.66894 20.0018 6.66854C18.1181 6.66814 16.2726 7.1998 14.6778 8.20229C13.083 9.20478 11.8037 10.6373 10.9874 12.335C10.1711 14.0326 9.85089 15.9263 10.0636 17.798C10.2764 19.6696 11.0135 21.4432 12.19 22.9143C12.3333 23.0926 13.535 24.3359 13.72 24.5376C15.38 26.3443 16.4017 27.9976 16.6217 30.0009V30.0009ZM23.3333 33.3343H16.6667V35.0009H23.3333V33.3343ZM9.58999 25.0009C8.02031 23.0398 7.03657 20.6751 6.7521 18.1792C6.46763 15.6834 6.89399 13.1579 7.98208 10.8938C9.07017 8.62973 10.7757 6.71906 12.9023 5.38191C15.0288 4.04476 17.4898 3.33554 20.0018 3.33594C22.5138 3.33634 24.9746 4.04635 27.1007 5.38418C29.2268 6.72201 30.9317 8.63323 32.0191 10.8977C33.1065 13.1621 33.532 15.6877 33.2467 18.1835C32.9615 20.6792 31.977 23.0436 30.4067 25.0043C29.3733 26.2909 26.6667 28.3343 26.6667 30.8343V35.0009C26.6667 35.885 26.3155 36.7328 25.6903 37.358C25.0652 37.9831 24.2174 38.3343 23.3333 38.3343H16.6667C15.7826 38.3343 14.9348 37.9831 14.3096 37.358C13.6845 36.7328 13.3333 35.885 13.3333 35.0009V30.8343C13.3333 28.3343 10.625 26.2909 9.58999 25.0009ZM21.6667 16.6743H25.8333L18.3333 26.6743V20.0076H14.1667L21.6667 10.0009V16.6759V16.6743Z" fill="#141F27"/>
</svg>
