<svg width="40" height="40" viewBox="0 0 40 40" fill="none" xmlns="http://www.w3.org/2000/svg">
<g clip-path="url(#clip0_1483_171179)">
<path d="M32.6033 20.1603L35.155 24.582C36.7667 27.372 35.81 30.9403 33.0217 32.5503C32.1333 33.062 31.1283 33.332 30.105 33.332H26.6667V37.4986L18.3333 31.6653L26.6667 25.832V29.9986H30.1033C30.5417 29.9986 30.9733 29.882 31.3533 29.6636C32.55 28.9736 32.9583 27.4436 32.27 26.2486L29.7167 21.827L32.6033 20.1603ZM12.1733 15.222L13.0567 25.3553L9.44999 23.272L7.73165 26.2486C7.51165 26.6286 7.39665 27.0603 7.39665 27.4986C7.39665 28.8786 8.51499 29.9986 9.89665 29.9986H15V33.332H9.89665C6.67499 33.332 4.06332 30.7203 4.06332 27.4986C4.06332 26.4753 4.33332 25.4686 4.84499 24.582L6.56165 21.6036L2.95499 19.522L12.1717 15.222H12.1733ZM22.9167 4.94696C23.8033 5.45862 24.54 6.19529 25.0517 7.08196L26.7683 10.057L30.3783 7.97362L29.495 18.1086L20.275 13.8086L23.8833 11.7253L22.165 8.74862C21.945 8.36862 21.63 8.05362 21.25 7.83362C20.055 7.14362 18.525 7.55362 17.835 8.74862L15.2817 13.1703L12.395 11.5036L14.95 7.08196C16.56 4.29196 20.1283 3.33529 22.9183 4.94696H22.9167Z" fill="#141F27"/>
</g>
<defs>
<clipPath id="clip0_1483_171179">
<rect width="40" height="40" fill="white"/>
</clipPath>
</defs>
</svg>
