<svg width="40" height="40" viewBox="0 0 40 40" fill="none" xmlns="http://www.w3.org/2000/svg">
<g clip-path="url(#clip0_1483_171006)">
<path d="M9.99999 3.33203C9.99999 4.18703 10.8167 4.9987 11.6667 4.9987H28.3333C29.1883 4.9987 30 4.18203 30 3.33203H33.3333C33.3333 6.0937 31.095 8.33203 28.3333 8.33203H21.6667L21.6683 11.7687C28.245 12.5904 33.3333 18.2004 33.3333 24.9987V34.9987C33.3333 35.9187 32.5867 36.6654 31.6667 36.6654H8.33332C7.41332 36.6654 6.66666 35.9187 6.66666 34.9987V24.9987C6.66666 18.1987 11.7567 12.5887 18.3333 11.7687V8.33203H11.6667C8.89999 8.33203 6.66666 6.0987 6.66666 3.33203H9.99999ZM20 14.9987C14.6033 14.9987 9.99999 19.5987 9.99999 24.9987V33.332H30V24.9987C30 19.602 25.3967 14.9987 20 14.9987ZM20 18.332C21.2367 18.332 22.3933 18.6687 23.3867 19.2554L18.82 23.8204C18.17 24.4704 18.17 25.527 18.82 26.177C19.4217 26.777 20.3683 26.8237 21.02 26.3154L21.1783 26.177L25.745 21.612C26.33 22.6054 26.6667 23.762 26.6667 24.9987C26.6667 28.682 23.6833 31.6654 20 31.6654C16.3167 31.6654 13.3333 28.682 13.3333 24.9987C13.3333 21.3154 16.3167 18.332 20 18.332Z" fill="#09121F"/>
</g>
<defs>
<clipPath id="clip0_1483_171006">
<rect width="40" height="40" fill="white"/>
</clipPath>
</defs>
</svg>
