<svg width="24" height="24" viewBox="0 0 24 24" fill="none" xmlns="http://www.w3.org/2000/svg">
<path d="M1 22.0012C1 19.8794 1.84285 17.8446 3.34315 16.3443C4.84344 14.844 6.87827 14.0012 9 14.0012C11.1217 14.0012 13.1566 14.844 14.6569 16.3443C16.1571 17.8446 17 19.8794 17 22.0012H15C15 20.4099 14.3679 18.8837 13.2426 17.7585C12.1174 16.6333 10.5913 16.0012 9 16.0012C7.4087 16.0012 5.88258 16.6333 4.75736 17.7585C3.63214 18.8837 3 20.4099 3 22.0012H1ZM9 13.0012C5.685 13.0012 3 10.3162 3 7.00116C3 3.68616 5.685 1.00116 9 1.00116C12.315 1.00116 15 3.68616 15 7.00116C15 10.3162 12.315 13.0012 9 13.0012ZM9 11.0012C11.21 11.0012 13 9.21116 13 7.00116C13 4.79116 11.21 3.00116 9 3.00116C6.79 3.00116 5 4.79116 5 7.00116C5 9.21116 6.79 11.0012 9 11.0012ZM21.548 0.785156C22.5062 2.71698 23.0032 4.84475 23 7.00116C23 9.23416 22.477 11.3452 21.548 13.2172L19.903 12.0212C20.6282 10.4471 21.0025 8.73422 21 7.00116C21 5.20916 20.607 3.50816 19.903 1.98116L21.548 0.785156ZM18.246 3.18516C18.7454 4.39532 19.0016 5.69199 19 7.00116C19.0016 8.31032 18.7454 9.607 18.246 10.8172L16.569 9.59716C16.8552 8.76159 17.0008 7.88436 17 7.00116C17.0011 6.11801 16.8558 5.24078 16.57 4.40516L18.246 3.18516Z" fill="#141F27"/>
</svg>
