<svg width="24" height="24" viewBox="0 0 24 24" fill="none" xmlns="http://www.w3.org/2000/svg">
<path d="M20.274 9.87059L16.832 4.95559L18.471 3.80859L21.912 8.72359L20.274 9.87059ZM18.39 12.4106L16.67 9.95159L8.47798 15.6876L10.198 18.1446L8.55999 19.2926L3.97198 12.7386L5.60998 11.5916L7.32998 14.0496L15.522 8.31359L13.802 5.85559L15.44 4.70859L20.028 11.2616L18.39 12.4096V12.4106ZM20.765 7.08459L22.403 5.93759L21.256 4.29959L19.618 5.44659L20.765 7.08459ZM7.16798 19.0476L3.72599 14.1326L2.08798 15.2796L5.52898 20.1946L7.16798 19.0476ZM4.38198 18.5566L2.74398 19.7036L1.59698 18.0656L3.23498 16.9186L4.38198 18.5566Z" fill="#141F27"/>
</svg>
