<svg width="24" height="24" viewBox="0 0 24 24" fill="none" xmlns="http://www.w3.org/2000/svg">
<path d="M19.56 11.3582L13 8.43823V6.99823C13 6.44823 12.55 5.99823 12 5.99823C11.45 5.99823 11 5.54823 11 4.99823C11 4.44823 11.45 3.99823 12 3.99823C12.55 3.99823 13 4.44823 13 4.99823H15C15 3.15823 13.34 1.69823 11.44 2.04823C10.26 2.26823 9.29 3.21823 9.06 4.39823C8.76 5.95823 9.66 7.33823 11 7.81823V8.44823L4.44 11.3682C3.56 11.7482 3 12.6182 3 13.5682V13.5782C3 14.9182 4.08 15.9982 5.42 15.9982H7V21.9982H17V15.9982H18.58C19.92 15.9982 21 14.9182 21 13.5782V13.5682C21 12.6182 20.44 11.7482 19.56 11.3582ZM18.58 13.9982H17V12.9982H7V13.9982H5.42C5.19 13.9982 5 13.8082 5 13.5682C5 13.3982 5.1 13.2482 5.25 13.1882L12 10.1882L18.75 13.1882C18.8387 13.2274 18.9113 13.2958 18.9556 13.3821C18.9998 13.4683 19.0131 13.5672 18.9932 13.6621C18.9733 13.757 18.9214 13.8422 18.8462 13.9034C18.7709 13.9646 18.677 13.9981 18.58 13.9982Z" fill="#141F27"/>
</svg>
