<svg width="24" height="24" viewBox="0 0 24 24" fill="none" xmlns="http://www.w3.org/2000/svg">
<path d="M2 18.0019C4.22 17.0019 6.44 16.0019 8.67 16.0019C10.89 16.0019 13.11 18.0019 15.33 18.0019C17.56 18.0019 19.78 16.0019 22 16.0019V19.0019C19.78 19.0019 17.56 21.0019 15.33 21.0019C13.11 21.0019 10.89 19.0019 8.67 19.0019C6.44 19.0019 4.22 20.0019 2 21.0019V18.0019ZM8.67 13.0019C7.89 13.0019 7.12 13.1219 6.35 13.3219L11.27 9.88188L10.23 8.64188C10.09 8.47188 10 8.24187 10 8.00187C10 7.66187 10.17 7.35187 10.44 7.17188L16.16 3.17188L17.31 4.80188L12.47 8.19187L17.7 14.4219C16.91 14.7519 16.12 15.0019 15.33 15.0019C13.11 15.0019 10.89 13.0019 8.67 13.0019ZM18 7.00187C18.5304 7.00187 19.0391 7.21259 19.4142 7.58766C19.7893 7.96273 20 8.47144 20 9.00187C20 9.53231 19.7893 10.041 19.4142 10.4161C19.0391 10.7912 18.5304 11.0019 18 11.0019C17.4696 11.0019 16.9609 10.7912 16.5858 10.4161C16.2107 10.041 16 9.53231 16 9.00187C16 8.47144 16.2107 7.96273 16.5858 7.58766C16.9609 7.21259 17.4696 7.00187 18 7.00187Z" fill="#141F27"/>
</svg>
