<svg width="41" height="40" viewBox="0 0 41 40" fill="none" xmlns="http://www.w3.org/2000/svg">
<g clip-path="url(#clip0_2068_196616)">
<path d="M5.50008 31.667V9.50035C5.49998 9.15823 5.60517 8.82436 5.80136 8.54408C5.99756 8.2638 6.27525 8.05069 6.59675 7.93369L22.7151 2.07369C22.841 2.02786 22.9761 2.01308 23.1089 2.03058C23.2418 2.04808 23.3684 2.09735 23.4782 2.17422C23.5879 2.25109 23.6775 2.35329 23.7393 2.47215C23.8012 2.59101 23.8335 2.72303 23.8334 2.85702V11.112L34.3601 14.6204C34.6921 14.7309 34.9809 14.9432 35.1855 15.2271C35.3901 15.511 35.5002 15.8521 35.5001 16.202V31.667H38.8334V35.0004H2.16675V31.667H5.50008ZM8.83341 31.667H20.5001V6.42535L8.83341 10.6687V31.667ZM32.1667 31.667V17.4037L23.8334 14.6254V31.667H32.1667Z" fill="#546E7A"/>
</g>
<defs>
<clipPath id="clip0_2068_196616">
<rect width="40" height="40" fill="white" transform="translate(0.5)"/>
</clipPath>
</defs>
</svg>
