<svg width="41" height="40" viewBox="0 0 41 40" fill="none" xmlns="http://www.w3.org/2000/svg">
<g clip-path="url(#clip0_2068_196620)">
<path d="M11.0717 24.3693L6.35838 29.0843L12.2501 34.9759L34.6417 12.5843L28.7501 6.69261L25.2134 10.2276L27.5717 12.5843L25.2134 14.9409L22.8567 12.5843L19.3217 16.1209L22.8567 19.6543L20.5 22.0143L16.965 18.4793L13.4284 22.0143L15.7867 24.3709L13.4284 26.7293L11.0717 24.3709V24.3693ZM29.9284 3.15595L38.1784 11.4059C38.4908 11.7185 38.6664 12.1423 38.6664 12.5843C38.6664 13.0262 38.4908 13.4501 38.1784 13.7626L13.4284 38.5126C13.1158 38.8251 12.692 39.0006 12.2501 39.0006C11.8081 39.0006 11.3843 38.8251 11.0717 38.5126L2.82172 30.2626C2.50927 29.9501 2.33374 29.5262 2.33374 29.0843C2.33374 28.6423 2.50927 28.2185 2.82172 27.9059L27.5717 3.15595C27.8843 2.84349 28.3081 2.66797 28.7501 2.66797C29.192 2.66797 29.6158 2.84349 29.9284 3.15595Z" fill="#546E7A"/>
</g>
<defs>
<clipPath id="clip0_2068_196620">
<rect width="40" height="40" fill="white" transform="translate(0.5)"/>
</clipPath>
</defs>
</svg>
