<svg width="41" height="40" viewBox="0 0 41 40" fill="none" xmlns="http://www.w3.org/2000/svg">
<g clip-path="url(#clip0_2068_196624)">
<path d="M33.9716 25.335L35.9749 26.5367C36.0985 26.6107 36.2008 26.7154 36.2718 26.8407C36.3429 26.966 36.3802 27.1076 36.3802 27.2517C36.3802 27.3957 36.3429 27.5373 36.2718 27.6626C36.2008 27.7879 36.0985 27.8927 35.9749 27.9667L21.3583 36.7367C21.099 36.8924 20.8023 36.9747 20.4999 36.9747C20.1975 36.9747 19.9008 36.8924 19.6416 36.7367L5.02492 27.9667C4.90133 27.8927 4.79903 27.7879 4.728 27.6626C4.65697 27.5373 4.61963 27.3957 4.61963 27.2517C4.61963 27.1076 4.65697 26.966 4.728 26.8407C4.79903 26.7154 4.90133 26.6107 5.02492 26.5367L7.02825 25.335L20.4999 33.4183L33.9716 25.335ZM33.9716 17.5017L35.9749 18.7033C36.0985 18.7773 36.2008 18.8821 36.2718 19.0074C36.3429 19.1327 36.3802 19.2743 36.3802 19.4183C36.3802 19.5624 36.3429 19.704 36.2718 19.8293C36.2008 19.9546 36.0985 20.0593 35.9749 20.1333L20.4999 29.4183L5.02492 20.1333C4.90133 20.0593 4.79903 19.9546 4.728 19.8293C4.65697 19.704 4.61963 19.5624 4.61963 19.4183C4.61963 19.2743 4.65697 19.1327 4.728 19.0074C4.79903 18.8821 4.90133 18.7773 5.02492 18.7033L7.02825 17.5017L20.4999 25.585L33.9716 17.5017ZM21.3566 2.18333L35.9749 10.9533C36.0985 11.0273 36.2008 11.1321 36.2718 11.2574C36.3429 11.3827 36.3802 11.5243 36.3802 11.6683C36.3802 11.8124 36.3429 11.954 36.2718 12.0793C36.2008 12.2046 36.0985 12.3093 35.9749 12.3833L20.4999 21.6683L5.02492 12.3833C4.90133 12.3093 4.79903 12.2046 4.728 12.0793C4.65697 11.954 4.61963 11.8124 4.61963 11.6683C4.61963 11.5243 4.65697 11.3827 4.728 11.2574C4.79903 11.1321 4.90133 11.0273 5.02492 10.9533L19.6416 2.18333C19.9008 2.02759 20.1975 1.94531 20.4999 1.94531C20.8023 1.94531 21.099 2.02759 21.3583 2.18333H21.3566ZM20.4999 5.555L10.3116 11.6683L20.4999 17.7817L30.6883 11.6683L20.4999 5.555Z" fill="#546E7A"/>
</g>
<defs>
<clipPath id="clip0_2068_196624">
<rect width="40" height="40" fill="white" transform="translate(0.5)"/>
</clipPath>
</defs>
</svg>
