<svg width="41" height="40" viewBox="0 0 41 40" fill="none" xmlns="http://www.w3.org/2000/svg">
<g clip-path="url(#clip0_2068_196629)">
<path d="M32.1666 33.3346H8.83325V35.0013C8.83325 35.4433 8.65766 35.8673 8.3451 36.1798C8.03254 36.4924 7.60861 36.668 7.16659 36.668H5.49992C5.05789 36.668 4.63397 36.4924 4.32141 36.1798C4.00885 35.8673 3.83325 35.4433 3.83325 35.0013V18.3346L7.96659 8.68797C8.22379 8.08797 8.65151 7.5767 9.19668 7.2176C9.74184 6.85851 10.3804 6.66739 11.0333 6.66797H29.9666C30.6188 6.66804 31.2567 6.85946 31.8012 7.21852C32.3457 7.57758 32.7729 8.08849 33.0299 8.68797L37.1666 18.3346V35.0013C37.1666 35.4433 36.991 35.8673 36.6784 36.1798C36.3659 36.4924 35.9419 36.668 35.4999 36.668H33.8333C33.3912 36.668 32.9673 36.4924 32.6547 36.1798C32.3422 35.8673 32.1666 35.4433 32.1666 35.0013V33.3346ZM33.8333 21.668H7.16659V30.0013H33.8333V21.668ZM7.45992 18.3346H33.5399L29.9683 10.0013H11.0333L7.46159 18.3346H7.45992ZM11.3333 28.3346C10.6702 28.3346 10.0343 28.0712 9.56549 27.6024C9.09664 27.1336 8.83325 26.4977 8.83325 25.8346C8.83325 25.1716 9.09664 24.5357 9.56549 24.0669C10.0343 23.598 10.6702 23.3346 11.3333 23.3346C11.9963 23.3346 12.6322 23.598 13.101 24.0669C13.5699 24.5357 13.8333 25.1716 13.8333 25.8346C13.8333 26.4977 13.5699 27.1336 13.101 27.6024C12.6322 28.0712 11.9963 28.3346 11.3333 28.3346ZM29.6666 28.3346C29.0035 28.3346 28.3677 28.0712 27.8988 27.6024C27.43 27.1336 27.1666 26.4977 27.1666 25.8346C27.1666 25.1716 27.43 24.5357 27.8988 24.0669C28.3677 23.598 29.0035 23.3346 29.6666 23.3346C30.3296 23.3346 30.9655 23.598 31.4344 24.0669C31.9032 24.5357 32.1666 25.1716 32.1666 25.8346C32.1666 26.4977 31.9032 27.1336 31.4344 27.6024C30.9655 28.0712 30.3296 28.3346 29.6666 28.3346Z" fill="#546E7A"/>
</g>
<defs>
<clipPath id="clip0_2068_196629">
<rect width="40" height="40" fill="white" transform="translate(0.5)"/>
</clipPath>
</defs>
</svg>
