<svg width="22" height="22" viewBox="0 0 22 22" fill="none" xmlns="http://www.w3.org/2000/svg">
<g clip-path="url(#clip0_1483_172961)">
<path d="M18.4094 13.9346L19.5113 14.5956C19.5793 14.6362 19.6355 14.6939 19.6746 14.7628C19.7137 14.8317 19.7342 14.9096 19.7342 14.9888C19.7342 15.068 19.7137 15.1459 19.6746 15.2148C19.6355 15.2837 19.5793 15.3414 19.5113 15.3821L11.4721 20.2056C11.3295 20.2912 11.1664 20.3365 11 20.3365C10.8337 20.3365 10.6705 20.2912 10.5279 20.2056L2.48878 15.3821C2.42081 15.3414 2.36454 15.2837 2.32547 15.2148C2.2864 15.1459 2.26587 15.068 2.26587 14.9888C2.26587 14.9096 2.2864 14.8317 2.32547 14.7628C2.36454 14.6939 2.42081 14.6362 2.48878 14.5956L3.59061 13.9346L11 18.3805L18.4094 13.9346ZM18.4094 9.6263L19.5113 10.2872C19.5793 10.3279 19.6355 10.3855 19.6746 10.4545C19.7137 10.5234 19.7342 10.6012 19.7342 10.6805C19.7342 10.7597 19.7137 10.8376 19.6746 10.9065C19.6355 10.9754 19.5793 11.033 19.5113 11.0737L11 16.1805L2.48878 11.0737C2.42081 11.033 2.36454 10.9754 2.32547 10.9065C2.2864 10.8376 2.26587 10.7597 2.26587 10.6805C2.26587 10.6012 2.2864 10.5234 2.32547 10.4545C2.36454 10.3855 2.42081 10.3279 2.48878 10.2872L3.59061 9.6263L11 14.0721L18.4094 9.6263ZM11.4712 1.20122L19.5113 6.02472C19.5793 6.06541 19.6355 6.12303 19.6746 6.19195C19.7137 6.26088 19.7342 6.33875 19.7342 6.41797C19.7342 6.4972 19.7137 6.57507 19.6746 6.64399C19.6355 6.71291 19.5793 6.77053 19.5113 6.81122L11 11.918L2.48878 6.81122C2.42081 6.77053 2.36454 6.71291 2.32547 6.64399C2.2864 6.57507 2.26587 6.4972 2.26587 6.41797C2.26587 6.33875 2.2864 6.26088 2.32547 6.19195C2.36454 6.12303 2.42081 6.06541 2.48878 6.02472L10.5279 1.20122C10.6705 1.11557 10.8337 1.07031 11 1.07031C11.1664 1.07031 11.3295 1.11557 11.4721 1.20122H11.4712ZM11 3.05564L5.39645 6.41797L11 9.7803L16.6036 6.41797L11 3.05564Z" fill="#141F27"/>
</g>
<defs>
<clipPath id="clip0_1483_172961">
<rect width="22" height="22" fill="white"/>
</clipPath>
</defs>
</svg>
