<svg width="22" height="22" viewBox="0 0 22 22" fill="none" xmlns="http://www.w3.org/2000/svg">
<g clip-path="url(#clip0_1483_172966)">
<path d="M15.5833 17.4167H17.4167V12.8333H9.16667V4.58333H4.58333V6.41667H6.41667V8.25H4.58333V10.0833H7.33333V11.9167H4.58333V13.75H6.41667V15.5833H4.58333V17.4167H6.41667V15.5833H8.25V17.4167H10.0833V14.6667H11.9167V17.4167H13.75V15.5833H15.5833V17.4167ZM11 11H18.3333C18.5764 11 18.8096 11.0966 18.9815 11.2685C19.1534 11.4404 19.25 11.6736 19.25 11.9167V18.3333C19.25 18.5764 19.1534 18.8096 18.9815 18.9815C18.8096 19.1534 18.5764 19.25 18.3333 19.25H3.66667C3.42355 19.25 3.19039 19.1534 3.01849 18.9815C2.84658 18.8096 2.75 18.5764 2.75 18.3333V3.66667C2.75 3.42355 2.84658 3.19039 3.01849 3.01849C3.19039 2.84658 3.42355 2.75 3.66667 2.75H10.0833C10.3264 2.75 10.5596 2.84658 10.7315 3.01849C10.9034 3.19039 11 3.42355 11 3.66667V11Z" fill="#141F27"/>
</g>
<defs>
<clipPath id="clip0_1483_172966">
<rect width="22" height="22" fill="white"/>
</clipPath>
</defs>
</svg>
