<svg width="20" height="20" viewBox="0 0 20 20" fill="none" xmlns="http://www.w3.org/2000/svg">
<g clip-path="url(#clip0_1508_182353)">
<path d="M14.1667 2.5026H17.5001C17.7211 2.5026 17.9331 2.5904 18.0893 2.74668C18.2456 2.90296 18.3334 3.11492 18.3334 3.33594V16.6693C18.3334 16.8903 18.2456 17.1022 18.0893 17.2585C17.9331 17.4148 17.7211 17.5026 17.5001 17.5026H2.50008C2.27907 17.5026 2.06711 17.4148 1.91083 17.2585C1.75455 17.1022 1.66675 16.8903 1.66675 16.6693V3.33594C1.66675 3.11492 1.75455 2.90296 1.91083 2.74668C2.06711 2.5904 2.27907 2.5026 2.50008 2.5026H5.83342V0.835938H7.50008V2.5026H12.5001V0.835938H14.1667V2.5026ZM16.6667 9.16927H3.33341V15.8359H16.6667V9.16927ZM12.5001 4.16927H7.50008V5.83594H5.83342V4.16927H3.33341V7.5026H16.6667V4.16927H14.1667V5.83594H12.5001V4.16927ZM5.00008 10.8359H6.66675V12.5026H5.00008V10.8359ZM9.16675 10.8359H10.8334V12.5026H9.16675V10.8359ZM13.3334 10.8359H15.0001V12.5026H13.3334V10.8359Z" fill="#B6BCC5"/>
</g>
<defs>
<clipPath id="clip0_1508_182353">
<rect width="20" height="20" fill="white"/>
</clipPath>
</defs>
</svg>
