<svg width="442" height="134" viewBox="0 0 442 134" fill="none" xmlns="http://www.w3.org/2000/svg">
<circle cx="1" cy="1" r="1" fill="#E4E4E4"/>
<circle cx="23" cy="1" r="1" fill="#E4E4E4"/>
<circle cx="45" cy="1" r="1" fill="#E4E4E4"/>
<circle cx="67" cy="1" r="1" fill="#E4E4E4"/>
<circle cx="89" cy="1" r="1" fill="#E4E4E4"/>
<circle cx="111" cy="1" r="1" fill="#E4E4E4"/>
<circle cx="133" cy="1" r="1" fill="#E4E4E4"/>
<circle cx="155" cy="1" r="1" fill="#E4E4E4"/>
<circle cx="177" cy="1" r="1" fill="#E4E4E4"/>
<circle cx="199" cy="1" r="1" fill="#E4E4E4"/>
<circle cx="221" cy="1" r="1" fill="#E4E4E4"/>
<circle cx="243" cy="1" r="1" fill="#E4E4E4"/>
<circle cx="265" cy="1" r="1" fill="#E4E4E4"/>
<circle cx="287" cy="1" r="1" fill="#E4E4E4"/>
<circle cx="309" cy="1" r="1" fill="#E4E4E4"/>
<circle cx="331" cy="1" r="1" fill="#E4E4E4"/>
<circle cx="353" cy="1" r="1" fill="#E4E4E4"/>
<circle cx="375" cy="1" r="1" fill="#E4E4E4"/>
<circle cx="397" cy="1" r="1" fill="#E4E4E4"/>
<circle cx="419" cy="1" r="1" fill="#E4E4E4"/>
<circle cx="441" cy="1" r="1" fill="#E4E4E4"/>
<circle cx="1" cy="23" r="1" fill="#E4E4E4"/>
<circle cx="23" cy="23" r="1" fill="#E4E4E4"/>
<circle cx="45" cy="23" r="1" fill="#E4E4E4"/>
<circle cx="67" cy="23" r="1" fill="#E4E4E4"/>
<circle cx="89" cy="23" r="1" fill="#E4E4E4"/>
<circle cx="111" cy="23" r="1" fill="#E4E4E4"/>
<circle cx="133" cy="23" r="1" fill="#E4E4E4"/>
<circle cx="155" cy="23" r="1" fill="#E4E4E4"/>
<circle cx="177" cy="23" r="1" fill="#E4E4E4"/>
<circle cx="199" cy="23" r="1" fill="#E4E4E4"/>
<circle cx="221" cy="23" r="1" fill="#E4E4E4"/>
<circle cx="243" cy="23" r="1" fill="#E4E4E4"/>
<circle cx="265" cy="23" r="1" fill="#E4E4E4"/>
<circle cx="287" cy="23" r="1" fill="#E4E4E4"/>
<circle cx="309" cy="23" r="1" fill="#E4E4E4"/>
<circle cx="331" cy="23" r="1" fill="#E4E4E4"/>
<circle cx="353" cy="23" r="1" fill="#E4E4E4"/>
<circle cx="375" cy="23" r="1" fill="#E4E4E4"/>
<circle cx="397" cy="23" r="1" fill="#E4E4E4"/>
<circle cx="419" cy="23" r="1" fill="#E4E4E4"/>
<circle cx="441" cy="23" r="1" fill="#E4E4E4"/>
<circle cx="1" cy="45" r="1" fill="#E4E4E4"/>
<circle cx="23" cy="45" r="1" fill="#E4E4E4"/>
<circle cx="45" cy="45" r="1" fill="#E4E4E4"/>
<circle cx="67" cy="45" r="1" fill="#E4E4E4"/>
<circle cx="89" cy="45" r="1" fill="#E4E4E4"/>
<circle cx="111" cy="45" r="1" fill="#E4E4E4"/>
<circle cx="133" cy="45" r="1" fill="#E4E4E4"/>
<circle cx="155" cy="45" r="1" fill="#E4E4E4"/>
<circle cx="177" cy="45" r="1" fill="#E4E4E4"/>
<circle cx="199" cy="45" r="1" fill="#E4E4E4"/>
<circle cx="221" cy="45" r="1" fill="#E4E4E4"/>
<circle cx="243" cy="45" r="1" fill="#E4E4E4"/>
<circle cx="265" cy="45" r="1" fill="#E4E4E4"/>
<circle cx="287" cy="45" r="1" fill="#E4E4E4"/>
<circle cx="309" cy="45" r="1" fill="#E4E4E4"/>
<circle cx="331" cy="45" r="1" fill="#E4E4E4"/>
<circle cx="353" cy="45" r="1" fill="#E4E4E4"/>
<circle cx="375" cy="45" r="1" fill="#E4E4E4"/>
<circle cx="397" cy="45" r="1" fill="#E4E4E4"/>
<circle cx="419" cy="45" r="1" fill="#E4E4E4"/>
<circle cx="441" cy="45" r="1" fill="#E4E4E4"/>
<circle cx="1" cy="67" r="1" fill="#E4E4E4"/>
<circle cx="23" cy="67" r="1" fill="#E4E4E4"/>
<circle cx="45" cy="67" r="1" fill="#E4E4E4"/>
<circle cx="67" cy="67" r="1" fill="#E4E4E4"/>
<circle cx="89" cy="67" r="1" fill="#E4E4E4"/>
<circle cx="111" cy="67" r="1" fill="#E4E4E4"/>
<circle cx="133" cy="67" r="1" fill="#E4E4E4"/>
<circle cx="155" cy="67" r="1" fill="#E4E4E4"/>
<circle cx="177" cy="67" r="1" fill="#E4E4E4"/>
<circle cx="199" cy="67" r="1" fill="#E4E4E4"/>
<circle cx="221" cy="67" r="1" fill="#E4E4E4"/>
<circle cx="243" cy="67" r="1" fill="#E4E4E4"/>
<circle cx="265" cy="67" r="1" fill="#E4E4E4"/>
<circle cx="287" cy="67" r="1" fill="#E4E4E4"/>
<circle cx="309" cy="67" r="1" fill="#E4E4E4"/>
<circle cx="331" cy="67" r="1" fill="#E4E4E4"/>
<circle cx="353" cy="67" r="1" fill="#E4E4E4"/>
<circle cx="375" cy="67" r="1" fill="#E4E4E4"/>
<circle cx="397" cy="67" r="1" fill="#E4E4E4"/>
<circle cx="419" cy="67" r="1" fill="#E4E4E4"/>
<circle cx="441" cy="67" r="1" fill="#E4E4E4"/>
<circle cx="1" cy="89" r="1" fill="#E4E4E4"/>
<circle cx="23" cy="89" r="1" fill="#E4E4E4"/>
<circle cx="45" cy="89" r="1" fill="#E4E4E4"/>
<circle cx="67" cy="89" r="1" fill="#E4E4E4"/>
<circle cx="89" cy="89" r="1" fill="#E4E4E4"/>
<circle cx="111" cy="89" r="1" fill="#E4E4E4"/>
<circle cx="133" cy="89" r="1" fill="#E4E4E4"/>
<circle cx="155" cy="89" r="1" fill="#E4E4E4"/>
<circle cx="177" cy="89" r="1" fill="#E4E4E4"/>
<circle cx="199" cy="89" r="1" fill="#E4E4E4"/>
<circle cx="221" cy="89" r="1" fill="#E4E4E4"/>
<circle cx="243" cy="89" r="1" fill="#E4E4E4"/>
<circle cx="265" cy="89" r="1" fill="#E4E4E4"/>
<circle cx="287" cy="89" r="1" fill="#E4E4E4"/>
<circle cx="309" cy="89" r="1" fill="#E4E4E4"/>
<circle cx="331" cy="89" r="1" fill="#E4E4E4"/>
<circle cx="353" cy="89" r="1" fill="#E4E4E4"/>
<circle cx="375" cy="89" r="1" fill="#E4E4E4"/>
<circle cx="397" cy="89" r="1" fill="#E4E4E4"/>
<circle cx="419" cy="89" r="1" fill="#E4E4E4"/>
<circle cx="441" cy="89" r="1" fill="#E4E4E4"/>
<circle cx="1" cy="111" r="1" fill="#E4E4E4"/>
<circle cx="23" cy="111" r="1" fill="#E4E4E4"/>
<circle cx="45" cy="111" r="1" fill="#E4E4E4"/>
<circle cx="67" cy="111" r="1" fill="#E4E4E4"/>
<circle cx="89" cy="111" r="1" fill="#E4E4E4"/>
<circle cx="111" cy="111" r="1" fill="#E4E4E4"/>
<circle cx="133" cy="111" r="1" fill="#E4E4E4"/>
<circle cx="155" cy="111" r="1" fill="#E4E4E4"/>
<circle cx="177" cy="111" r="1" fill="#E4E4E4"/>
<circle cx="199" cy="111" r="1" fill="#E4E4E4"/>
<circle cx="221" cy="111" r="1" fill="#E4E4E4"/>
<circle cx="243" cy="111" r="1" fill="#E4E4E4"/>
<circle cx="265" cy="111" r="1" fill="#E4E4E4"/>
<circle cx="287" cy="111" r="1" fill="#E4E4E4"/>
<circle cx="309" cy="111" r="1" fill="#E4E4E4"/>
<circle cx="331" cy="111" r="1" fill="#E4E4E4"/>
<circle cx="353" cy="111" r="1" fill="#E4E4E4"/>
<circle cx="375" cy="111" r="1" fill="#E4E4E4"/>
<circle cx="397" cy="111" r="1" fill="#E4E4E4"/>
<circle cx="419" cy="111" r="1" fill="#E4E4E4"/>
<circle cx="441" cy="111" r="1" fill="#E4E4E4"/>
<circle cx="1" cy="133" r="1" fill="#E4E4E4"/>
<circle cx="23" cy="133" r="1" fill="#E4E4E4"/>
<circle cx="45" cy="133" r="1" fill="#E4E4E4"/>
<circle cx="67" cy="133" r="1" fill="#E4E4E4"/>
<circle cx="89" cy="133" r="1" fill="#E4E4E4"/>
<circle cx="111" cy="133" r="1" fill="#E4E4E4"/>
<circle cx="133" cy="133" r="1" fill="#E4E4E4"/>
<circle cx="155" cy="133" r="1" fill="#E4E4E4"/>
<circle cx="177" cy="133" r="1" fill="#E4E4E4"/>
<circle cx="199" cy="133" r="1" fill="#E4E4E4"/>
<circle cx="221" cy="133" r="1" fill="#E4E4E4"/>
<circle cx="243" cy="133" r="1" fill="#E4E4E4"/>
<circle cx="265" cy="133" r="1" fill="#E4E4E4"/>
<circle cx="287" cy="133" r="1" fill="#E4E4E4"/>
<circle cx="309" cy="133" r="1" fill="#E4E4E4"/>
<circle cx="331" cy="133" r="1" fill="#E4E4E4"/>
<circle cx="353" cy="133" r="1" fill="#E4E4E4"/>
<circle cx="375" cy="133" r="1" fill="#E4E4E4"/>
<circle cx="397" cy="133" r="1" fill="#E4E4E4"/>
<circle cx="419" cy="133" r="1" fill="#E4E4E4"/>
<circle cx="441" cy="133" r="1" fill="#E4E4E4"/>
</svg>
