<svg width="20" height="20" viewBox="0 0 20 20" fill="none" xmlns="http://www.w3.org/2000/svg">
<path d="M11.2867 8.71403C10.6041 8.03173 9.67851 7.64844 8.71338 7.64844C7.74826 7.64844 6.82264 8.03173 6.14005 8.71403L3.56588 11.2874C2.88328 11.97 2.4998 12.8958 2.4998 13.8611C2.4998 14.8265 2.88328 15.7523 3.56588 16.4349C4.24848 17.1175 5.17429 17.5009 6.13963 17.5009C7.10498 17.5009 8.03078 17.1175 8.71338 16.4349L10.0001 15.1482" stroke="white" stroke-width="1.33333" stroke-linecap="round" stroke-linejoin="round"/>
<path d="M8.71335 11.2869C9.39594 11.9692 10.3216 12.3525 11.2867 12.3525C12.2518 12.3525 13.1774 11.9692 13.86 11.2869L16.4342 8.71358C17.1168 8.03098 17.5003 7.10518 17.5003 6.13983C17.5003 5.17449 17.1168 4.24868 16.4342 3.56608C15.7516 2.88348 14.8258 2.5 13.8604 2.5C12.8951 2.5 11.9693 2.88348 11.2867 3.56608L10 4.85275" stroke="white" stroke-width="1.33333" stroke-linecap="round" stroke-linejoin="round"/>
</svg>
