<svg width="20" height="20" viewBox="0 0 20 20" fill="none" xmlns="http://www.w3.org/2000/svg">
<g clip-path="url(#clip0_1459_185126)">
<path d="M9.99999 18.3346C5.39749 18.3346 1.66666 14.6038 1.66666 10.0013C1.66666 5.3988 5.39749 1.66797 9.99999 1.66797C14.6025 1.66797 18.3333 5.3988 18.3333 10.0013C18.3333 14.6038 14.6025 18.3346 9.99999 18.3346ZM9.99999 16.668C11.7681 16.668 13.4638 15.9656 14.714 14.7153C15.9643 13.4651 16.6667 11.7694 16.6667 10.0013C16.6667 8.23319 15.9643 6.5375 14.714 5.28726C13.4638 4.03701 11.7681 3.33464 9.99999 3.33464C8.23188 3.33464 6.53619 4.03701 5.28594 5.28726C4.0357 6.5375 3.33332 8.23319 3.33332 10.0013C3.33332 11.7694 4.0357 13.4651 5.28594 14.7153C6.53619 15.9656 8.23188 16.668 9.99999 16.668Z" fill="url(#paint0_linear_1459_185126)"/>
<path d="M6.5 6.66797V12.7286H8.10985V9.20111H8.1572L9.50663 12.6812H10.4773L11.8267 9.22479H11.8741V12.7286H13.4839V6.66797H11.4361L10.0275 10.1007H9.95644L8.54782 6.66797H6.5Z" fill="url(#paint1_linear_1459_185126)"/>
</g>
<defs>
<linearGradient id="paint0_linear_1459_185126" x1="1.66666" y1="1.66797" x2="19.0309" y2="2.42954" gradientUnits="userSpaceOnUse">
<stop stop-color="#EB5D19"/>
<stop offset="1" stop-color="#F06F31"/>
</linearGradient>
<linearGradient id="paint1_linear_1459_185126" x1="6.5" y1="6.66797" x2="13.7716" y2="7.03548" gradientUnits="userSpaceOnUse">
<stop stop-color="#EB5D19"/>
<stop offset="1" stop-color="#F06F31"/>
</linearGradient>
<clipPath id="clip0_1459_185126">
<rect width="20" height="20" fill="white"/>
</clipPath>
</defs>
</svg>
