<svg width="20" height="20" viewBox="0 0 20 20" fill="none" xmlns="http://www.w3.org/2000/svg">
<g clip-path="url(#clip0_7_7385)">
<path d="M10.0003 18.3334C5.39783 18.3334 1.66699 14.6026 1.66699 10.0001C1.66699 5.39758 5.39783 1.66675 10.0003 1.66675C14.6028 1.66675 18.3337 5.39758 18.3337 10.0001C18.3337 14.6026 14.6028 18.3334 10.0003 18.3334ZM10.0003 16.6667C11.7684 16.6667 13.4641 15.9644 14.7144 14.7141C15.9646 13.4639 16.667 11.7682 16.667 10.0001C16.667 8.23197 15.9646 6.53628 14.7144 5.28604C13.4641 4.03579 11.7684 3.33341 10.0003 3.33341C8.23222 3.33341 6.53652 4.03579 5.28628 5.28604C4.03604 6.53628 3.33366 8.23197 3.33366 10.0001C3.33366 11.7682 4.03604 13.4639 5.28628 14.7141C6.53652 15.9644 8.23222 16.6667 10.0003 16.6667Z" fill="url(#paint0_linear_7_7385)"/>
<path d="M6.5 6.66675V12.7274H8.10985V9.19989H8.1572L9.50663 12.68H10.4773L11.8267 9.22357H11.8741V12.7274H13.4839V6.66675H11.4361L10.0275 10.0995H9.95644L8.54782 6.66675H6.5Z" fill="url(#paint1_linear_7_7385)"/>
</g>
<defs>
<linearGradient id="paint0_linear_7_7385" x1="1.66699" y1="1.66675" x2="19.0132" y2="2.72788" gradientUnits="userSpaceOnUse">
<stop stop-color="#1998EB"/>
<stop offset="1" stop-color="#49B0F3"/>
</linearGradient>
<linearGradient id="paint1_linear_7_7385" x1="6.5" y1="6.66675" x2="13.7598" y2="7.17851" gradientUnits="userSpaceOnUse">
<stop stop-color="#1998EB"/>
<stop offset="1" stop-color="#49B0F3"/>
</linearGradient>
<clipPath id="clip0_7_7385">
<rect width="20" height="20" fill="white"/>
</clipPath>
</defs>
</svg>
