<svg width="20" height="20" viewBox="0 0 20 20" fill="none" xmlns="http://www.w3.org/2000/svg">
<g clip-path="url(#clip0_1459_184992)">
<path d="M1.66667 5.0013C1.66667 4.5413 2.04584 4.16797 2.49334 4.16797H17.5067C17.9633 4.16797 18.3333 4.5388 18.3333 5.0013V16.668C18.3333 17.128 17.9542 17.5013 17.5067 17.5013H2.49334C2.38428 17.5011 2.27633 17.4793 2.1757 17.4373C2.07507 17.3953 1.98373 17.3338 1.90692 17.2563C1.83012 17.1789 1.76935 17.0871 1.72813 16.9861C1.6869 16.8851 1.66601 16.777 1.66667 16.668V5.0013ZM3.33334 5.83464V15.8346H16.6667V5.83464H3.33334ZM11.6667 13.3346C12.3297 13.3346 12.9656 13.0712 13.4344 12.6024C13.9033 12.1336 14.1667 11.4977 14.1667 10.8346C14.1667 10.1716 13.9033 9.53571 13.4344 9.06687C12.9656 8.59803 12.3297 8.33464 11.6667 8.33464C11.0036 8.33464 10.3677 8.59803 9.89891 9.06687C9.43006 9.53571 9.16667 10.1716 9.16667 10.8346C9.16667 11.4977 9.43006 12.1336 9.89891 12.6024C10.3677 13.0712 11.0036 13.3346 11.6667 13.3346ZM11.6667 15.0013C10.5616 15.0013 9.5018 14.5623 8.72039 13.7809C7.93899 12.9995 7.50001 11.9397 7.50001 10.8346C7.50001 9.72957 7.93899 8.66976 8.72039 7.88836C9.5018 7.10696 10.5616 6.66797 11.6667 6.66797C12.7717 6.66797 13.8315 7.10696 14.613 7.88836C15.3944 8.66976 15.8333 9.72957 15.8333 10.8346C15.8333 11.9397 15.3944 12.9995 14.613 13.7809C13.8315 14.5623 12.7717 15.0013 11.6667 15.0013ZM3.33334 1.66797H8.33334V3.33464H3.33334V1.66797Z" fill="white"/>
</g>
<defs>
<clipPath id="clip0_1459_184992">
<rect width="20" height="20" fill="white"/>
</clipPath>
</defs>
</svg>
