<svg width="20" height="20" viewBox="0 0 20 20" fill="none" xmlns="http://www.w3.org/2000/svg">
<g clip-path="url(#clip0_1483_170795)">
<path d="M10 17.4179L14.125 13.2929C14.9408 12.4771 15.4963 11.4377 15.7213 10.3061C15.9463 9.17459 15.8308 8.00173 15.3892 6.93587C14.9477 5.87 14.2 4.95899 13.2408 4.31804C12.2815 3.6771 11.1537 3.33499 10 3.33499C8.8463 3.33499 7.71851 3.6771 6.75924 4.31804C5.79997 4.95899 5.05229 5.87 4.61076 6.93587C4.16923 8.00173 4.05368 9.17459 4.27871 10.3061C4.50374 11.4377 5.05926 12.4771 5.875 13.2929L10 17.4179ZM10 19.7746L4.69667 14.4712C3.64779 13.4223 2.93349 12.086 2.64411 10.6311C2.35473 9.17626 2.50326 7.66826 3.07092 6.29782C3.63858 4.92738 4.59987 3.75605 5.83324 2.93194C7.0666 2.10783 8.51665 1.66797 10 1.66797C11.4834 1.66797 12.9334 2.10783 14.1668 2.93194C15.4001 3.75605 16.3614 4.92738 16.9291 6.29782C17.4968 7.66826 17.6453 9.17626 17.3559 10.6311C17.0665 12.086 16.3522 13.4223 15.3033 14.4712L10 19.7746ZM10 10.8346C10.442 10.8346 10.866 10.659 11.1785 10.3464C11.4911 10.0339 11.6667 9.60993 11.6667 9.1679C11.6667 8.72588 11.4911 8.30195 11.1785 7.98939C10.866 7.67683 10.442 7.50124 10 7.50124C9.55798 7.50124 9.13405 7.67683 8.82149 7.98939C8.50893 8.30195 8.33334 8.72588 8.33334 9.1679C8.33334 9.60993 8.50893 10.0339 8.82149 10.3464C9.13405 10.659 9.55798 10.8346 10 10.8346ZM10 12.5012C9.11595 12.5012 8.2681 12.15 7.64298 11.5249C7.01786 10.8998 6.66667 10.052 6.66667 9.1679C6.66667 8.28385 7.01786 7.436 7.64298 6.81088C8.2681 6.18576 9.11595 5.83457 10 5.83457C10.8841 5.83457 11.7319 6.18576 12.357 6.81088C12.9821 7.436 13.3333 8.28385 13.3333 9.1679C13.3333 10.052 12.9821 10.8998 12.357 11.5249C11.7319 12.15 10.8841 12.5012 10 12.5012Z" fill="white"/>
</g>
<defs>
<clipPath id="clip0_1483_170795">
<rect width="20" height="20" fill="white"/>
</clipPath>
</defs>
</svg>
