<svg width="24" height="24" viewBox="0 0 24 24" fill="none" xmlns="http://www.w3.org/2000/svg">
<g clip-path="url(#clip0_35_11260)">
<path d="M12 2C6.48 2 2 6.48 2 12C2 17.52 6.48 22 12 22C17.52 22 22 17.52 22 12C22 6.48 17.52 2 12 2ZM12 20C7.58 20 4 16.42 4 12C4 7.58 7.58 4 12 4C16.42 4 20 7.58 20 12C20 16.42 16.42 20 12 20Z" fill="url(#paint0_linear_35_11260)"/>
<path d="M12 17C14.7614 17 17 14.7614 17 12C17 9.23858 14.7614 7 12 7C9.23858 7 7 9.23858 7 12C7 14.7614 9.23858 17 12 17Z" fill="url(#paint1_linear_35_11260)"/>
</g>
<defs>
<linearGradient id="paint0_linear_35_11260" x1="2" y1="2" x2="22.8154" y2="3.27335" gradientUnits="userSpaceOnUse">
<stop stop-color="#1998EB"/>
<stop offset="1" stop-color="#49B0F3"/>
</linearGradient>
<linearGradient id="paint1_linear_35_11260" x1="7" y1="7" x2="17.4077" y2="7.63668" gradientUnits="userSpaceOnUse">
<stop stop-color="#1998EB"/>
<stop offset="1" stop-color="#49B0F3"/>
</linearGradient>
<clipPath id="clip0_35_11260">
<rect width="24" height="24" fill="white"/>
</clipPath>
</defs>
</svg>
