<svg width="20" height="20" viewBox="0 0 20 20" fill="none" xmlns="http://www.w3.org/2000/svg">
<path d="M8.33333 4.16667V8.33333H7.5V4.16667H4.16667V10.8333H7.5V10H8.33333V14.1667H7.5V11.6667H4.16667V15.8333H10V14.1667H10.8333V15.8333H15.8333V14.1667H17.5V16.7C17.5 17.1418 17.1418 17.5 16.7 17.5H3.3C2.85817 17.5 2.5 17.1418 2.5 16.7V3.3C2.5 2.85817 2.85817 2.5 3.3 2.5H16.7C17.1418 2.5 17.5 2.85817 17.5 3.3V12.5H15.8333V8.33333H10.8333V12.5H10V7.5H15.8333V4.16667H8.33333Z" fill="#2A3842"/>
</svg>
