<svg width="16" height="16" viewBox="0 0 16 16" fill="none" xmlns="http://www.w3.org/2000/svg">
<g clip-path="url(#clip0_7_7392)">
<path d="M2.66634 12.0001H6.33301V12.8334C6.33301 13.3196 6.13985 13.7859 5.79604 14.1297C5.45222 14.4736 4.9859 14.6667 4.49967 14.6667C4.01344 14.6667 3.54713 14.4736 3.20331 14.1297C2.8595 13.7859 2.66634 13.3196 2.66634 12.8334V12.0001ZM5.37167 9.33339L5.40167 9.24539C5.91301 7.84139 5.99967 7.58005 5.99967 7.33339C5.99967 6.83339 5.86434 6.23805 5.64767 5.81805C5.48634 5.50472 5.37301 5.41339 5.33301 5.41339C4.47967 5.41339 3.66634 6.32272 3.66634 7.33339C3.66634 7.97272 3.71634 8.51539 3.81767 9.17205L3.84301 9.33339H5.37167ZM5.33301 4.08005C6.66634 4.08005 7.33301 6.00005 7.33301 7.33339C7.33301 8.00005 6.99967 8.66672 6.66634 9.66672L6.33301 10.6667H2.66634C2.66634 10.0001 2.33301 9.00005 2.33301 7.33339C2.33301 5.66672 3.66501 4.08005 5.33301 4.08005ZM13.369 9.39872L13.2243 10.2194C13.1399 10.6983 12.8687 11.124 12.4704 11.4029C12.0721 11.6819 11.5792 11.7911 11.1003 11.7067C10.6214 11.6223 10.1957 11.3511 9.91678 10.9528C9.63785 10.5544 9.52858 10.0616 9.61301 9.58272L9.75834 8.76272L13.369 9.39872ZM12.669 6.56805C12.779 6.23472 12.8697 5.97139 12.871 5.96805C13.0057 5.52939 13.1117 5.09939 13.1943 4.62939C13.3697 3.63472 12.7263 2.59805 11.8863 2.44939C11.847 2.44272 11.7197 2.51272 11.5063 2.79272C11.2197 3.16939 10.9837 3.73272 10.8963 4.22405C10.8577 4.44405 10.8637 4.49405 11.0763 5.73272C11.1063 5.90339 11.131 6.05672 11.1537 6.21072L11.167 6.30272L12.6697 6.56805H12.669ZM12.1183 1.13672C13.761 1.42605 14.797 3.21939 14.5077 4.86072C14.2183 6.50272 13.7163 7.42939 13.601 8.08605L9.98967 7.44939L9.83501 6.40672C9.68034 5.36405 9.46834 4.64939 9.58367 3.99339C9.81501 2.68005 10.805 0.905386 12.1183 1.13672Z" fill="#B6BCC5"/>
</g>
<defs>
<clipPath id="clip0_7_7392">
<rect width="16" height="16" fill="white"/>
</clipPath>
</defs>
</svg>
